<svg width="50" height="50" viewBox="0 0 50 50" fill="none" xmlns="http://www.w3.org/2000/svg">
<path fill-rule="evenodd" clip-rule="evenodd" d="M25 50C38.8071 50 50 38.8071 50 25C50 11.1929 38.8071 0 25 0C11.1929 0 0 11.1929 0 25C0 38.8071 11.1929 50 25 50ZM28.8167 18.7467L25.9511 9.92705C25.6517 9.00574 24.3483 9.00574 24.0489 9.92705L21.1833 18.7467C21.0494 19.1587 20.6654 19.4377 20.2322 19.4377H10.9587C9.98994 19.4377 9.58717 20.6773 10.3709 21.2467L17.8733 26.6976C18.2238 26.9522 18.3705 27.4036 18.2366 27.8156L15.3709 36.6353C15.0716 37.5566 16.126 38.3227 16.9098 37.7533L24.4122 32.3024C24.7627 32.0478 25.2373 32.0478 25.5878 32.3024L33.0902 37.7533C33.874 38.3227 34.9284 37.5566 34.6291 36.6353L31.7634 27.8156C31.6295 27.4036 31.7762 26.9522 32.1267 26.6976L39.6291 21.2467C40.4128 20.6773 40.0101 19.4377 39.0413 19.4377H29.7678C29.3346 19.4377 28.9506 19.1587 28.8167 18.7467Z" fill="#0D0D4B"/>
</svg>
